<?xml version="1.0" standalone="no"?>
<!DOCTYPE svg PUBLIC "-//W3C//DTD SVG 20010904//EN"
 "http://www.w3.org/TR/2001/REC-SVG-20010904/DTD/svg10.dtd">
<svg version="1.0" xmlns="http://www.w3.org/2000/svg"
 width="96.000000pt" height="96.000000pt" viewBox="0 0 96.000000 96.000000"
 preserveAspectRatio="xMidYMid meet">
<metadata>
Created by potrace 1.11, written by Peter Selinger 2001-2013
</metadata>
<g transform="translate(0.000000,96.000000) scale(0.100000,-0.100000)"
fill="#000000" stroke="none">
<path d="M216 806 c-18 -43 -23 -44 -36 -11 -10 28 -28 33 -36 11 -9 -23 15
-93 43 -127 32 -37 78 -59 126 -59 61 0 100 -24 125 -75 29 -60 50 -153 42
-185 -5 -21 -12 -25 -50 -28 -25 -2 -60 -1 -78 3 -27 5 -31 9 -22 20 6 7 26
13 44 13 37 0 86 27 86 48 0 21 -20 27 -38 11 -9 -7 -25 -17 -35 -20 -15 -6
-17 -2 -12 26 12 64 12 87 -1 104 -10 14 -17 16 -31 7 -10 -6 -18 -20 -19 -30
-2 -38 -4 -44 -17 -44 -30 0 -35 21 -10 48 15 16 23 35 21 51 -5 38 -26 36
-42 -3 -17 -41 -33 -47 -38 -13 -2 12 -10 22 -18 22 -11 0 -15 -10 -14 -38 1
-40 39 -91 76 -103 23 -7 23 -15 -3 -43 l-21 -22 -24 33 c-14 18 -27 43 -31
56 -7 31 -37 46 -64 31 -17 -9 -20 -17 -15 -42 10 -51 55 -117 102 -150 38
-26 42 -33 27 -39 -28 -10 -31 -9 -38 12 -9 29 -53 56 -67 42 -9 -9 -7 -16 5
-30 22 -24 21 -31 -2 -25 -27 7 -38 -17 -16 -34 29 -20 104 -16 155 10 36 18
56 21 99 17 l53 -5 -46 -62 -46 -63 53 0 c50 0 53 2 80 43 l29 42 77 0 c66 0
83 4 114 25 40 27 49 42 41 65 -8 20 -33 19 -55 -1 -24 -21 -38 -10 -33 25 3
17 0 32 -7 37 -19 11 -38 -25 -33 -62 4 -33 3 -34 -29 -34 -19 0 -36 2 -39 5
-3 3 0 28 6 56 11 49 13 51 71 75 33 14 62 25 65 26 16 6 53 -17 60 -38 11
-28 51 -50 74 -41 21 8 20 26 -1 34 -42 15 -45 26 -13 40 49 20 33 39 -30 34
l-54 -3 17 23 c22 30 56 100 57 116 0 6 -13 21 -30 33 -38 27 -38 45 1 56 41
12 78 59 61 76 -9 9 -18 6 -40 -15 -34 -33 -50 -34 -54 -4 -4 28 -42 36 -52
10 -17 -44 -16 -87 5 -128 17 -34 19 -46 10 -64 -7 -11 -18 -21 -25 -21 -14 0
-36 41 -36 69 0 28 -26 46 -45 31 -22 -19 -18 -73 9 -112 l24 -36 -25 -11
c-32 -15 -53 -14 -53 2 0 6 -11 38 -25 70 l-24 59 34 29 c42 38 60 90 56 165
-1 29 -32 40 -48 17 -8 -9 -11 -23 -9 -30 3 -7 1 -13 -5 -13 -5 0 -17 16 -25
36 -18 43 -40 39 -37 -7 1 -24 10 -40 32 -59 l31 -25 -23 -29 c-21 -26 -25
-27 -45 -15 -18 11 -26 11 -42 1 -16 -9 -25 -10 -42 -1 -19 10 -19 12 -5 21
21 11 47 60 47 88 0 32 -28 23 -44 -14 -18 -42 -33 -52 -41 -26 -7 23 -43 27
-51 5 -3 -8 -1 -29 5 -46 6 -18 9 -34 7 -36 -7 -7 -55 16 -74 37 -19 21 -19
21 10 52 19 21 28 40 26 56 -5 39 -25 37 -42 -2z"/>
</g>
</svg>
